HIERARCHY
ROOT Hips
{
  OFFSET -35.4901 99.2528 17.4586
  CHANNELS 6 Xposition Yposition Zposition Zrotation Xrotation Yrotation
  JOINT LeftUpLeg
  {
    OFFSET 8.64259 1.95398 -2.38835
    CHANNELS 3 Zrotation Xrotation Yrotation
    JOINT LeftLeg
    {
      OFFSET 43.7702 0 0
      CHANNELS 3 Zrotation Xrotation Yrotation
      JOINT LeftFoot
      {
        OFFSET 40.6238 0 0
        CHANNELS 3 Zrotation Xrotation Yrotation
        JOINT LeftToeBase
        {
          OFFSET 12.7242 0 0
          CHANNELS 3 Zrotation Xrotation Yrotation
          End Site
          {
            OFFSET 0 0 0
          }
        }
      }
    }
  }
  JOINT RightUpLeg
  {
    OFFSET -8.2249 1.95398 -2.59336
    CHANNELS 3 Zrotation Xrotation Yrotation
    JOINT RightLeg
    {
      OFFSET 43.5653 0 0
      CHANNELS 3 Zrotation Xrotation Yrotation
      JOINT RightFoot
      {
        OFFSET 40.6238 0 0
        CHANNELS 3 Zrotation Xrotation Yrotation
        JOINT RightToeBase
        {
          OFFSET 12.7242 0 0
          CHANNELS 3 Zrotation Xrotation Yrotation
          End Site
          {
            OFFSET 0 0 0
          }
        }
      }
    }
  }
  JOINT Spine
  {
    OFFSET 0.165834 0.87714 6.61349
    CHANNELS 3 Zrotation Xrotation Yrotation
    JOINT Spine1
    {
      OFFSET 7.38963 1.71661e-005 0
      CHANNELS 3 Zrotation Xrotation Yrotation
      JOINT Spine2
      {
        OFFSET 11.9445 1.14441e-005 0
        CHANNELS 3 Zrotation Xrotation Yrotation
        JOINT Spine3
        {
          OFFSET 14.7254 4.19617e-005 0
          CHANNELS 3 Zrotation Xrotation Yrotation
          JOINT Spine4
          {
            OFFSET 10.9679 0 0
            CHANNELS 3 Zrotation Xrotation Yrotation
            JOINT RightShoulder
            {
              OFFSET 2.46616 -1.6653 3.69651
              CHANNELS 3 Zrotation Xrotation Yrotation
              JOINT RightArm
              {
                OFFSET 13.0012 0 0
                CHANNELS 3 Zrotation Xrotation Yrotation
                JOINT RightForeArm
                {
                  OFFSET 28.7848 1.52588e-005 0
                  CHANNELS 3 Zrotation Xrotation Yrotation
                  JOINT RightHand
                  {
                    OFFSET 26.5688 1.52588e-005 0
                    CHANNELS 3 Zrotation Xrotation Yrotation
                    End Site
                    {
                      OFFSET 0 0 0
                    }
                  }
                }
              }
            }
            JOINT LeftShoulder
            {
              OFFSET 2.38034 -1.29275 -3.7523
              CHANNELS 3 Zrotation Xrotation Yrotation
              JOINT LeftArm
              {
                OFFSET 16.3182 6.10351e-005 0
                CHANNELS 3 Zrotation Xrotation Yrotation
                JOINT LeftForeArm
                {
                  OFFSET 27.0901 0 0
                  CHANNELS 3 Zrotation Xrotation Yrotation
                  JOINT LeftHand
                  {
                    OFFSET 24.5451 1.52588e-005 0
                    CHANNELS 3 Zrotation Xrotation Yrotation
                    End Site
                    {
                      OFFSET 0 0 0
                    }
                  }
                }
              }
            }
            JOINT Neck
            {
              OFFSET 5.0226 -0.0266342 0
              CHANNELS 3 Zrotation Xrotation Yrotation
              JOINT Head
              {
                OFFSET 6.69364 2.86102e-005 0
                CHANNELS 3 Zrotation Xrotation Yrotation
                End Site
                {
                  OFFSET 0 0 0
                }
              }
            }
          }
        }
      }
    }
  }
}
MOTION
Frames:	7
Frame Time:	0.0416667
28.6037 96.8283 -100.925 -178.2 -81.1285 178.903 -174.108 0.534974 87.3976 -31.9995 11.3919 -4.59223 82.8378 9.33195 -4.69312 17.1366 -0.880816 2.24174 173.261 22.245 86.2465 -30.1871 -8.58101 -1.70869 67.1155 -4.08876 -2.3165 16.0954 -2.5286 6.4984 -0.456542 8.24493 -90.042 10.3883 -0.928587 0.00159682 -1.28235 -0.927611 0.0424613 -23.8201 -0.886142 -0.277573 -3.80747 -0.886141 -0.277575 88.714 -35.4173 -107.193 32.6039 -7.2646 -5.09138 3.70352 -25.9803 -13.9457 -23.3463 -0.0805778 -7.89248 -85.1276 -44.2891 85.2468 -30.3487 -0.647154 -24.4599 10.7802 6.7474 -14.4584 2.20074 -0.326291 -10.2464 -12.9065 1.89082 -8.03481 -3.26418 2.08464 3.01901 
29.8026 97.5213 -104.516 -158.052 -79.7037 -162.126 -176.817 -0.837471 84.0936 -28.4221 5.43183 -4.68938 80.4028 7.9783 -3.39428 14.0069 -0.62874 1.93407 175.086 20.7752 83.9162 -44.0874 -9.33859 -3.5482 70.8576 -5.95725 -1.27367 18.6642 -1.59699 4.55455 0.0786325 8.2499 -89.5556 10.3718 0.360156 0.849935 -1.2994 0.397218 0.833257 -23.8323 0.0880787 0.918887 -3.81966 0.0880771 0.918875 88.2586 -33.1892 -108.883 35.6237 -9.62099 -4.00671 2.53917 -26.6319 -16.4991 -23.3785 -0.0328442 -8.26102 -84.5524 -46.8921 86.5192 -26.1026 2.53711 -16.0241 6.83994 2.93843 -10.1924 0.784276 -0.220382 -9.03763 -14.5487 1.8104 -7.83641 -2.32132 1.91942 1.00982 
30.3893 97.9172 -107.47 -152.935 -78.92 -157.272 -178.554 -0.0284138 82.2586 -25.7086 2.37981 -3.44731 77.7743 6.35951 -3.48447 13.273 -0.186098 1.41529 175.596 15.1606 82.3193 -55.0621 -9.98444 -4.42869 72.0324 -6.84053 -3.54527 21.6623 -2.61836 6.81594 0.456987 8.15815 -89.3272 10.5496 1.21935 1.22789 -1.12129 1.27221 1.17303 -23.6541 0.793997 1.53754 -3.64142 0.793999 1.53754 88.1993 -31.6875 -109.595 37.5711 -11.4095 -2.40553 1.38702 -25.6481 -19.2618 -25.0824 0.0243335 -8.18731 -83.8789 -49.786 87.9092 -27.2623 0.175178 -5.73233 6.45605 0.599654 -6.92269 -2.06819 -0.103118 -9.10902 -14.6957 0.800865 -6.59546 -2.29361 0.884266 -1.6723 
30.8388 97.8961 -110.199 -148.297 -79.1668 -153.491 -179.225 2.34257 80.9436 -25.1412 2.00783 -3.44533 76.4317 5.94331 -1.70814 11.067 -0.338874 1.72751 174.43 7.67651 80.0496 -59.522 -13.1305 -4.92564 70.5397 -5.87821 -1.75836 22.1138 -1.98266 5.36828 0.809946 7.92439 -89.038 11.0067 2.05808 1.71749 -0.663636 2.13167 1.62523 -23.197 1.4469 2.2565 -3.1844 1.4469 2.25648 87.9948 -30.906 -110.316 40.1228 -10.2782 -0.982543 0.696737 -25.4818 -19.0218 -24.9997 0.103023 -8.59511 -82.8127 -51.2957 89.6629 -27.6588 1.56678 5.67659 3.55893 -8.04999 -5.21125 3.12025 -0.123858 -4.80058 -14.9347 -0.177951 -6.80952 -2.37674 -0.105481 -3.36256 
30.6159 97.5475 -113.505 -144.177 -79.4995 -150.097 -178.274 5.53751 81.5193 -25.9146 2.41812 -4.99053 74.6379 5.46389 -2.58076 11.7269 -0.5913 2.00559 172.687 -0.781608 79.3529 -56.5436 -20.8595 -5.68134 70.1529 -5.55034 -2.22255 23.7687 -2.7394 7.24019 1.0961 7.72634 -88.7303 11.3923 2.77345 2.24845 -0.27745 2.8697 2.12418 -22.8107 1.96978 2.97775 -2.79806 1.96979 2.97774 88.0278 -30.8767 -110.265 41.812 -10.1867 -1.08716 1.44797 -25.611 -19.1669 -25.4395 0.126028 -8.65039 -82.166 -51.6411 90.6552 -29.0344 0.872351 14.1227 2.78462 -10.5898 -5.77645 1.77321 -0.0788653 -3.98575 -14.0578 -0.705584 -7.8702 -3.22136 -0.532304 -4.14747 
30.7081 97.1486 -118.194 -137.88 -78.4552 -144.721 -178.387 8.77746 81.0918 -26.0286 -0.0122207 -5.46073 72.0344 4.32183 -3.46104 10.242 -1.11671 2.69951 171.907 -8.69659 78.8118 -47.3352 -30.9165 -7.83449 70.5625 -5.59254 -2.46627 27.4432 -3.30665 8.76856 1.39026 7.74069 -88.4616 11.3459 3.48361 2.71589 -0.322893 3.59973 2.5599 -22.8572 2.50689 3.63683 -2.84453 2.50689 3.63682 87.8227 -30.9961 -110.609 41.5182 -11.3548 -2.32179 1.21902 -26.3382 -19.7906 -26.6396 0.101153 -8.47087 -81.7667 -51.2788 91.2222 -30.9876 -0.0273475 16.2472 3.21425 -9.53872 -6.12576 0.406302 -0.0675671 -3.41304 -13.184 -1.03348 -8.74317 -2.16512 -0.8185 -3.84088 
30.8359 96.568 -125.038 -128.979 -76.9672 -136.112 -178.794 12.2744 81.3228 -22.9811 -2.68477 -5.17494 67.3482 2.82227 -3.11545 8.88722 -1.36048 3.03541 172.064 -10.8509 79.5206 -39.1135 -30.6153 -9.07366 78.7866 -9.8381 -3.35114 32.4793 -4.71198 13.5006 1.63511 7.88461 -88.477 11.0547 3.96101 2.64969 -0.612505 4.07375 2.47267 -23.1565 2.98207 3.71739 -3.14385 2.98207 3.71739 88.3574 -29.4178 -110.25 40.1883 -11.3394 -4.38332 -2.17463 -31.1716 -23.5435 -26.5647 -0.558444 -5.92985 -81.4351 -53.2418 91.8448 -30.5094 0.49824 11.9056 3.00131 -10.9373 -7.14932 -0.379178 -0.0990343 -4.85871 -11.414 -1.16362 -5.6009 -1.69705 -0.955423 -5.47509 
